<?xml version="1.0" encoding="UTF-8"?>
<!DOCTYPE svg PUBLIC "-//W3C//DTD SVG 1.1//EN" "http://www.w3.org/Graphics/SVG/1.1/DTD/svg11.dtd">
<!-- Creator: CorelDRAW 2021 (64-Bit) -->
<svg xmlns="http://www.w3.org/2000/svg" xml:space="preserve" width="443.694mm" height="148.848mm" version="1.1" style="shape-rendering:geometricPrecision; text-rendering:geometricPrecision; image-rendering:optimizeQuality; fill-rule:evenodd; clip-rule:evenodd"
viewBox="0 0 19169.27 6430.8"
 xmlns:xlink="http://www.w3.org/1999/xlink"
 xmlns:xodm="http://www.corel.com/coreldraw/odm/2003">
 <defs>
  <style type="text/css">
   <![CDATA[
    .str0 {stroke:black;stroke-width:43.9;stroke-linecap:round;stroke-linejoin:round;stroke-miterlimit:22.9256}
    .fil0 {fill:#051952}
    .fil2 {fill:black;fill-rule:nonzero}
    .fil1 {fill:url(#id0)}
   ]]>
  </style>
  <linearGradient id="id0" gradientUnits="userSpaceOnUse" x1="3822.36" y1="3616.04" x2="6561.46" y2="916.19">
   <stop offset="0" style="stop-opacity:1; stop-color:#2C91C4"/>
   <stop offset="0.458824" style="stop-opacity:1; stop-color:#2EA8BD"/>
   <stop offset="1" style="stop-opacity:1; stop-color:#30C0B6"/>
  </linearGradient>
 </defs>
 <g id="Layer_x0020_1">
  <metadata id="CorelCorpID_0Corel-Layer"/>
  <polygon class="fil0" points="4666.19,5255.54 3945.86,5671.43 2630.58,6430.8 1315.28,5671.43 -0,4912.04 -0,3393.27 -0,1874.52 1315.28,1115.13 2028.88,703.14 2028.88,2018.15 1884.7,2101.39 1138.83,2532.02 1138.83,3393.28 1138.83,4254.54 1884.7,4685.17 2630.57,5115.8 3376.44,4685.17 3527.35,4598.04 "/>
  <polygon class="fil1" points="4182.88,1621.4 3714.82,1891.63 3246.77,2161.86 2778.71,1891.63 2310.65,1621.4 2310.65,1080.93 2310.65,540.47 2778.7,270.23 3246.77,0 3714.82,270.23 4182.88,540.47 4182.88,1071.97 4622.13,1296.92 4622.13,1162.39 5090.19,892.15 5558.25,621.92 6026.31,892.16 6494.36,1162.38 6494.36,1162.52 6494.48,1162.59 6494.47,1703.05 6494.47,2243.51 6026.42,2513.75 5558.36,2783.98 5441.86,2716.72 5417.04,3209.59 5877.33,3475.35 5877.34,4015.81 5877.33,4556.28 5409.28,4826.52 4941.22,5096.74 4473.16,4826.51 4005.11,4556.28 4005.11,4015.81 4005.11,3475.34 4473.16,3205.11 4941.22,2934.88 5016.94,2978.6 5041.76,2485.72 4622.25,2243.51 4622.25,2243.38 4622.13,2243.32 4622.13,1758.9 4182.88,1533.96 "/>
  <path class="fil2 str0" d="M8355.42 4200.81c-210.35,0 -389.91,-74.59 -538.69,-223.37 -148.78,-148.78 -222.97,-328.34 -222.97,-538.69 0,-210.34 74.19,-389.91 222.97,-538.69 148.78,-148.78 328.34,-223.37 538.69,-223.37 176.8,0 334.26,55.25 473.18,165.35 136.15,108.13 224.94,246.26 265.6,415.17l130.63 0c-42.23,-203.64 -144.05,-371.76 -305.06,-505.14 -164.17,-134.97 -352.41,-202.45 -564.34,-202.45 -245.07,0 -454.63,87.22 -628.67,261.25 -173.64,173.64 -260.46,382.8 -260.46,627.88 0,245.07 86.82,454.24 260.46,627.88 174.04,174.04 383.59,261.26 628.67,261.26 211.92,0 400.17,-67.48 564.34,-202.45 161.02,-133.39 262.83,-301.51 305.06,-505.14l-130.63 0c-40.65,168.91 -129.44,307.03 -265.6,415.16 -138.91,110.1 -296.38,165.36 -473.18,165.36z"/>
  <path class="fil2 str0" d="M10299.04 2675.51c-210.35,0 -389.91,74.59 -538.69,223.37 -148.78,148.78 -222.97,328.34 -222.97,538.69 0,210.35 74.19,389.91 222.97,538.69 148.78,148.78 328.34,223.37 538.69,223.37 210.74,0 390.3,-74.59 539.08,-223.37 148.78,-148.78 222.97,-328.34 222.97,-538.69 0,-210.34 -74.19,-389.91 -222.97,-538.69 -148.78,-148.78 -328.34,-223.37 -539.08,-223.37zm0 1651.18c-245.07,0 -454.63,-87.22 -628.67,-261.25 -173.64,-173.64 -260.46,-382.8 -260.46,-627.88 0,-245.07 86.82,-454.23 260.46,-627.88 174.04,-174.04 383.59,-261.25 628.67,-261.25 245.07,0 454.63,87.22 627.88,261.25 174.43,173.64 261.25,382.8 261.25,627.88 0,245.07 -86.82,454.24 -261.25,627.88 -173.25,174.04 -382.8,261.25 -627.88,261.25z"/>
  <path class="fil2 str0" d="M11723.7 3975.07c-148.78,-149.57 -222.97,-329.14 -222.97,-538.69 0,-210.34 74.19,-389.91 222.97,-538.69 148.78,-149.57 328.34,-224.16 538.69,-224.16 206.79,0 383.99,72.22 531.98,217.06 147.2,144.44 223.37,319.27 228.89,524.87l0 40.65c-5.53,205.61 -81.69,380.83 -228.89,524.87 -147.99,144.83 -325.19,217.45 -531.98,217.45 -210.35,0 -389.91,-74.59 -538.69,-223.37zm1426.63 -566.32c0,-239.15 -87.61,-442.79 -263.62,-611.7 -174.04,-166.54 -382.02,-249.81 -624.33,-249.81 -245.07,0 -454.63,86.82 -628.67,260.07 -173.64,174.43 -260.46,383.99 -260.46,629.06 0,245.07 86.82,454.63 260.46,627.88 174.04,174.04 383.59,261.25 628.67,261.25 159.04,0 306.63,-39.86 442.79,-120.37 132.6,-76.16 238.76,-180.35 318.08,-312.16l0 120.37c-1.58,204.42 -75.77,380.04 -222.97,527.24 -148.78,147.2 -328.34,221 -539.08,221 -210.35,0 -389.91,-73.8 -538.69,-221 -33.94,-35.52 -63.14,-70.64 -87.61,-105.37l-100.63 78.93c28.42,39.86 61.17,78.14 98.27,114.45 173.25,174.04 382.8,261.25 628.67,261.25 245.47,0 454.63,-87.22 627.88,-261.25 171.27,-170.49 258.1,-374.12 261.25,-610.51l0 -609.33z"/>
  <path class="fil2 str0" d="M13514.98 4264.35l0 -959.77c0,-175.61 61.96,-325.58 185.88,-449.5 124.31,-124.31 273.88,-186.27 449.89,-186.27 174.83,0 324.4,61.96 448.71,186.27 124.71,123.92 187.06,273.88 187.06,449.5l0 959.77 125.89 0 0 -959.77c0,-210.34 -74.19,-390.3 -222.97,-539.87 -149.57,-148.78 -329.14,-222.97 -538.69,-222.97 -210.34,0 -390.3,74.19 -539.87,222.97 -148.78,149.57 -223.37,329.53 -223.37,539.87l0 959.77 127.47 0z"/>
  <polygon class="fil2 str0" points="15201.69,4261.98 15329.16,4261.98 15329.16,2610.79 15201.69,2610.79 "/>
  <path class="fil2 str0" d="M16378.9 2547.25c-209.56,0 -388.72,74.59 -537.5,223.37 -148.78,148.78 -223.37,327.95 -223.37,537.5l0 953.85 127.47 0 0 -953.85c0,-174.82 61.96,-324.4 185.88,-448.71 123.52,-123.92 272.7,-185.88 447.52,-185.88 66.3,0 131.42,10.26 195.35,31.18l0 -131.81c-63.93,-16.97 -129.05,-25.65 -195.35,-25.65z"/>
  <path class="fil2 str0" d="M16902.6 4181.07c0,25.26 -8.68,47.36 -26.44,65.91 -17.76,17.76 -39.47,26.44 -64.72,26.44 -25.65,0 -47.36,-8.68 -65.9,-26.44 -17.76,-18.55 -26.44,-40.65 -26.44,-65.91 0,-25.65 8.68,-46.96 26.44,-64.72 18.55,-18.55 40.25,-28.02 65.9,-28.02 25.26,0 46.96,9.47 64.72,28.02 17.76,17.76 26.44,39.07 26.44,64.72z"/>
  <path class="fil2 str0" d="M17918.01 2514.89l-899.39 1747.08 142.07 0 212.71 -412.8 1089.22 0 212.71 412.8 142.07 0 -899.39 -1747.08zm0 276.25l479.89 932.15 -959.77 0 479.89 -932.15z"/>
  <polygon class="fil2 str0" points="19019.86,4261.98 19147.33,4261.98 19147.33,2610.79 19019.86,2610.79 "/>
 </g>
</svg>
